<svg xmlns="http://www.w3.org/2000/svg" viewBox="0 0 2807.29 590.7"><defs><style>.cls-1{fill:#fff;}</style></defs><title>Asset 1</title><g id="Layer_2" data-name="Layer 2"><g id="Layer_1-2" data-name="Layer 1"><path class="cls-1" d="M51.08,389.7c27,46,64,111.65,75,130,37.91,63.18,84.73,71,110,71s57-24,72-57c9.76-21.47,24.07-47,39.26-75.94l75.42,1.36,140.87-8.73q0,2.38-.59,10.71t-1.19,18.46q-.6,10.12-1,19.64t-.39,14.68a94.81,94.81,0,0,0,3.37,25.6,62.19,62.19,0,0,0,10.52,21.43A48.75,48.75,0,0,0,593.2,575.6Q604.9,581,621.57,581q28.57,0,57.54-14.68T736.85,527q6.88-5.89,13.71-12.21a122.57,122.57,0,0,0-.81,13.8,75.41,75.41,0,0,0,2.78,20.83,43,43,0,0,0,9.32,17.06A43.94,43.94,0,0,0,779.11,578q10.71,4.16,26.59,4.17,23.81,0,49.21-9.53A295,295,0,0,0,906.3,547a540.35,540.35,0,0,0,52.38-37.1L961,508a125.59,125.59,0,0,0-1.74,20.53A75.41,75.41,0,0,0,962,549.41a43,43,0,0,0,9.32,17.06A43.94,43.94,0,0,0,988.64,578q10.71,4.16,26.59,4.17,23.81,0,49.21-9.53A294.78,294.78,0,0,0,1115.82,547a539.88,539.88,0,0,0,52.39-37.1l.42-.34c.32,1,.62,2.08,1,3.11a108.91,108.91,0,0,0,19.64,35.71,95.19,95.19,0,0,0,31.35,24.6q18.45,9.13,42.26,9.13a226,226,0,0,0,56.35-7.34,393.85,393.85,0,0,0,55-18.45,486.12,486.12,0,0,0,50-24.4q12.54-7.06,23.45-13.73-2.52,6.3-4.6,11.94-5.57,15.09-5.56,21.83,0,12.7,7.94,21.43t21.82,8.73q13.49,0,22.42-8.53a89,89,0,0,0,16.07-21.43q7.14-12.89,13.69-27.78a241.27,241.27,0,0,1,14.48-28q12.7-19.44,29.36-44a429,429,0,0,1,36.51-46.63,222.9,222.9,0,0,1,42.66-37.1q22.81-15.08,48.21-15.08,6.74,0,10.12,4.17a15.61,15.61,0,0,1,3.37,10.12q0,6.75-5.16,17.46t-12.9,24.4q-7.74,13.7-16.86,29t-17.26,30.75A300.79,300.79,0,0,0,1638,499.6q-5.76,14.68-6.55,27c-.26,2.12-.46,4-.59,5.75s-.2,3.51-.2,5.36q0,21,9.72,32.74t30.75,11.71a86.73,86.73,0,0,0,15.68-1.59,173,173,0,0,0,18.85-4.76,396.81,396.81,0,0,0,52.58-18.85,417.83,417.83,0,0,0,42.07-21.83q14.87-8.86,29.29-18.76.64,15.44,4.83,26.89a58.88,58.88,0,0,0,13.89,22.22,53.38,53.38,0,0,0,21.23,12.7,87.61,87.61,0,0,0,27,4,125.14,125.14,0,0,0,35.32-5.36,164.81,164.81,0,0,0,35.32-15.08,158.61,158.61,0,0,0,31.35-23.41A125.26,125.26,0,0,0,2022,507.94a21,21,0,0,0-.39,4.17v4.17q0,32.94,16.67,49.4t45.64,16.47q23.81,0,48.61-11.11a270.36,270.36,0,0,0,49.8-29.57q14.85-11,29.55-23.82a107.61,107.61,0,0,0,17.88,30.76,95.19,95.19,0,0,0,31.35,24.6q18.45,9.13,42.26,9.13a226,226,0,0,0,56.35-7.34,393.84,393.84,0,0,0,55-18.45,486.11,486.11,0,0,0,50-24.4q12.12-6.83,22.72-13.28-4.55,9.39-9,17.85a53.55,53.55,0,0,0-5.75,14.48,54.25,54.25,0,0,0-1.39,10.92q0,10.71,5.36,15.47t14.49,4.76a50.21,50.21,0,0,0,17.46-3.57,85.18,85.18,0,0,0,18.65-9.92A88,88,0,0,0,2544,553.17a77.39,77.39,0,0,0,12.5-20.64q5.95-13.09,14.28-31.35T2588,464.28q8.93-18.64,17.26-35.71T2620,400.4q4.76-8.72,15.87-16.47a171.86,171.86,0,0,1,23.41-13.69,187.44,187.44,0,0,1,23.21-9.52q10.91-3.57,15.68-3.57,2.77,0,3.57,2a10.84,10.84,0,0,1,.79,4c-.16,3.41-5.17,14.76-5.55,18.25-1.42,12.82,45.82,42.22,73.21,26.19,4.61-2.7,10.81-11.45,23.21-29,2.17-3.06,9.66-13.75,11.9-24.21a81.57,81.57,0,0,0,1.59-10.52q.39-5,.39-9.33,0-20.24-9.72-28.77T2770,297.22a109.6,109.6,0,0,0-25.2,3.37,257,257,0,0,0-29.56,9.13q-15.48,5.76-31.95,13.69a354.39,354.39,0,0,0-31.94,17.46l-.79.4h-.4c-.27,0-.4-.26-.4-.79a9,9,0,0,1,.79-3.18q.79-2,1.79-4.37t1.79-4.36a9.2,9.2,0,0,0,.79-3.18,16.37,16.37,0,0,0-5.16-11.9,43.11,43.11,0,0,0-13.29-8.73,79.68,79.68,0,0,0-18.45-5.36,120.83,120.83,0,0,0-20.64-1.79,79.27,79.27,0,0,0-18.85,2.18,50.9,50.9,0,0,0-15.68,6.55,31.5,31.5,0,0,0-14.68,27.78q0,10.32,3.77,17.26a40.9,40.9,0,0,0,9.32,11.71q-17.07,34.52-29.56,60.91c-2.7,5.71-5.29,11.19-7.79,16.48q-4,2.1-11.66,6.73-10.52,6.35-26.19,15.08t-35.12,18.45q-19.45,9.73-39.88,18.06a321.39,321.39,0,0,1-41.27,13.69,157.44,157.44,0,0,1-39.09,5.36q-17.07,0-27.38-6.55T2291,493.25q54-19.84,89.88-39.48t57.34-38.49q21.43-18.84,30.16-37.1t8.73-34.92q0-28.17-16.27-44t-49.21-15.87a186.4,186.4,0,0,0-58.93,9.13,215.24,215.24,0,0,0-50.6,24.21,228.38,228.38,0,0,0-41.47,34.72,251.84,251.84,0,0,0-31.15,40.28,195.29,195.29,0,0,0-19.44,41.07,131.42,131.42,0,0,0-6.33,28.84l-2.8,2.31A457.52,457.52,0,0,1,2156.3,496q-23.22,14.69-45.83,21.43a11,11,0,0,1-4.76.79q-7.94,0-11.51-7.74a35.45,35.45,0,0,1-3.57-14.88,4.49,4.49,0,0,0,.39-2,4.41,4.41,0,0,1,.4-2q14.68-36.11,34.13-81t40.87-92.06q21.43-47.22,43.25-93.85t41.67-86.31q2.38-6.34,5.36-13.69t5.55-14.88q2.58-7.53,4.57-15.48a63.78,63.78,0,0,0,2-15.48q0-18.65-9.92-25.2t-25-6.55A45.49,45.49,0,0,0,2214,51.39a51.05,51.05,0,0,0-15.28,11.11,70,70,0,0,0-11.31,16.27A103.5,103.5,0,0,0,2179.91,98q-1.19,3.57-6.35,16.47l-12.3,30.75q-7.14,17.86-15.68,38.1t-15.87,37.9q-7.35,17.66-12.9,30.75t-6.75,16.67q-1.19,3.18-4.36,10.12t-7.14,16.47q-1.59,3.18-3.17,6.75a56.69,56.69,0,0,0-14.68-10.71q-16.28-7.53-38.89-7.54-19.45,0-42.85,7.54a229.09,229.09,0,0,0-47,21.63A285.06,285.06,0,0,0,1906.29,347a251.6,251.6,0,0,0-39.09,45.24,233.33,233.33,0,0,0-27.38,55.16c-.12.34-.23.69-.34,1q-9.7,6.82-20.29,13.65-20.64,13.3-43.06,25.2a361.48,361.48,0,0,1-43.85,19.84q-5.16,3.57-8.73,4.17a39.33,39.33,0,0,1-6.35.59q-4.37,0-6.35-2.38a8.38,8.38,0,0,1-2-5.56,22.6,22.6,0,0,1,5.16-14.68q4-7.14,10.91-18.05t15.28-24q8.34-13.1,16.87-28t15.47-30.35a225.71,225.71,0,0,0,11.31-31,109.62,109.62,0,0,0,4.36-29.76q0-24.2-14.09-34.33T1739,283.73a143.9,143.9,0,0,0-39.49,6A262.63,262.63,0,0,0,1659.07,305a231.21,231.21,0,0,0-35.92,21q-16.28,11.71-25,22.82a55.87,55.87,0,0,0,4.37-12.7,56.8,56.8,0,0,0,1.19-11.11q0-13.48-7.54-20.44a24.55,24.55,0,0,0-17.07-6.95q-11.51,0-23.41,8.34t-19.84,25.4q-6.35,13.89-16.27,33.73t-20.83,42.26Q1490.62,424,1482.5,441c-2.6,1.41-6.17,3.48-10.73,6.23q-10.52,6.35-26.19,15.08t-35.12,18.45q-19.45,9.73-39.88,18.06a321.38,321.38,0,0,1-41.27,13.69,157.44,157.44,0,0,1-39.09,5.36q-17.07,0-27.38-6.55t-12.3-18.06q54-19.84,89.88-39.48t57.34-38.49q21.43-18.84,30.16-37.1t8.73-34.92q0-28.17-16.27-44t-49.21-15.87a186.4,186.4,0,0,0-58.93,9.13,226,226,0,0,0-24.56,9.75,41.43,41.43,0,0,0-12.94-3.6,142.19,142.19,0,0,0-17.46-1H1127.92Q1143,269.45,1156.49,244q5.95-10.72,12.1-22.22t11.9-22q5.75-10.51,10.92-19.84t8.73-16.07q5.55-10.32,8.93-18.06a38.05,38.05,0,0,0,3.37-15.28q0-14.68-9.91-21a39.75,39.75,0,0,0-21.83-6.35,49.28,49.28,0,0,0-24.4,6.55q-11.71,6.55-19.64,21.63l-83.73,166.27H918.4Q933.47,269.45,947,244q6-10.72,12.1-22.22t11.9-22q5.75-10.51,10.91-19.84t8.73-16.07q5.55-10.32,8.93-18.06a38.09,38.09,0,0,0,3.37-15.28q0-14.68-9.92-21a39.71,39.71,0,0,0-21.82-6.35,49.29,49.29,0,0,0-24.41,6.55q-11.71,6.55-19.64,21.63L843.4,297.62H800.54a35.87,35.87,0,0,0-16.27,3.57,46.11,46.11,0,0,0-12.1,8.53,36,36,0,0,0-7.54,10.71,24.73,24.73,0,0,0-2.58,9.72q0,9.13,8.33,16.27t30.55,7.14H818q-8.08,16.17-16.48,33.38-15.29,17-31.93,33.88-17.86,18.06-36.11,34.92t-35.32,29.76a229.44,229.44,0,0,1-31.94,20.64q-14.88,7.74-25.6,7.74-7.94,0-10.32-5.56a34.18,34.18,0,0,1-2.38-13.49,84.32,84.32,0,0,1,2.18-18.45q2.18-9.72,4.17-17.26,5.55-19.84,15.87-46.23t22.42-55.16q12.1-28.77,24.6-57.54t22.62-53.37q10.12-24.6,16.67-42.86T743,178.17a31.32,31.32,0,0,0-3.57-13.69,30.13,30.13,0,0,0-8.14-9.52,34.15,34.15,0,0,0-10.91-5.55,41.23,41.23,0,0,0-11.9-1.79A40,40,0,0,0,686.85,154q-10.12,6.35-15.28,21.43Q664,192.06,655.3,211.71t-17.66,39.68q-8.93,20-17.66,39.88t-16.07,36.91q-7.35,17.07-13.29,30.75t-9.52,21.63l-122.62,9.12H385.86q9.52-14.28,22-35.32t27.58-46q15.08-25,32.14-52.38t35.32-53.57q18.25-26.19,37.7-49.8a413.87,413.87,0,0,1,39.09-41.67q19.64-18.05,39.09-28.57t38.09-10.52a59.36,59.36,0,0,1,26.39,6.55q13.29,6.55,25.6,20.83,8.33,10.32,17.66,13.49A51.87,51.87,0,0,0,743,115.87a29,29,0,0,0,11.51-2.38,38.38,38.38,0,0,0,10.12-6.35A32.34,32.34,0,0,0,772,98a21.6,21.6,0,0,0,2.78-10.32q0-4-2.78-9.52-25.8-41.67-54.17-59.92T660.06,0Q628.71,0,597,16.86t-62.9,44.84a577.46,577.46,0,0,0-60.71,64.09q-29.57,36.11-56,74.41t-49,75.6q-22.62,37.31-39.88,68.06t-28.18,51.79l-.43.82c-4.38,7.61-9,16-13.77,25.32l-.28.45,0,0c-1.25,2.43-2.52,4.89-3.8,7.44-16.31,32.35-44,80-60.88,80-33.69,0-50.54-33.69-63.18-54.75-17-28.34-33.69-59-45.84-82.29C90,330,67.62,301.35,52.73,286.45c-12.64-12.64-37.91-21.06-50.54,0-5.55,9.25-.53,22.33,15,45.54C35.08,358.7,46,381,51.08,389.7Zm2252.24,16.05q6.74-12.11,15.28-24.41a124.14,124.14,0,0,1,19.45-22,95,95,0,0,1,24-15.68,67.28,67.28,0,0,1,28.18-6h3.57a18.7,18.7,0,0,1,3.57.4,16.1,16.1,0,0,1,8.53,4.36,12.51,12.51,0,0,1,3.77,9.52q0,7.14-6.75,16.87t-24.6,20.83q-4,2.38-13.69,9.13t-22.82,15.08q-13.09,8.33-28,17.46t-28.77,16.27q1.51-4.78,3.9-11a69.67,69.67,0,0,0,4.63-9.23,68.83,68.83,0,0,0,2.74-8.14Q2299.48,412.66,2303.32,405.75Zm-371.23,22a182.08,182.08,0,0,1,42.26-50.2,177.19,177.19,0,0,1,55.16-30.75q26.19-9.52,50-10.32-4.37,9.52-7.54,17.06-3.57,7.94-5.55,12.3-6,13.89-14.09,30t-18.25,32.34a340.7,340.7,0,0,1-22,31.35,189.29,189.29,0,0,1-25.59,26.79A124,124,0,0,1,1957.68,505a75,75,0,0,1-31.75,6.94q-13.5,0-13.49-15.87Q1914.82,457.55,1932.09,427.78Zm-610.52-84.13a67.28,67.28,0,0,1,28.18-6h3.57a18.7,18.7,0,0,1,3.57.4,16.1,16.1,0,0,1,8.53,4.36,12.51,12.51,0,0,1,3.77,9.52q0,7.14-6.75,16.87t-24.6,20.83q-4,2.38-13.69,9.13t-22.82,15.08q-13.09,8.33-28,17.46t-28.77,16.27q2.38-7.53,6.95-18.65a216.81,216.81,0,0,1,11.31-23.21q6.74-12.11,15.28-24.41a124.14,124.14,0,0,1,19.45-22A95,95,0,0,1,1321.57,343.65Zm-100.75,7.08-.64.66A251.83,251.83,0,0,0,1189,391.67a195.29,195.29,0,0,0-19.44,41.07,147.13,147.13,0,0,0-4.54,17q-3.55,2.61-7.16,5.23-15.68,11.31-32,21.82T1095,495.44a228.36,228.36,0,0,1-27.38,13.09q-12.71,5-21,5-6,0-8.53-3.17t-2.58-8.73q0-9.53,4.56-22a211.86,211.86,0,0,1,9.33-22q11.5-23,24.6-50.2t27.78-55.76Zm-328.62.86,96.27-.69q8.4,2.67,22,2.68h17.06q-11.11,22.23-22.82,46.43L996,418q-8.13,6.76-17.67,14.32Q964,443.65,948.36,455t-31.94,21.82q-16.28,10.52-31,18.65a228.36,228.36,0,0,1-27.38,13.09q-12.71,5-21,5-6,0-8.53-3.17t-2.58-8.73q0-9.53,4.56-22a211.88,211.88,0,0,1,9.33-22q11.5-23,24.6-50.2T892.21,351.59Z"/></g></g></svg>