<svg xmlns="http://www.w3.org/2000/svg" viewBox="0 0 774.75 590.7"><defs><style>.cls-1{fill:#fff;}</style></defs><title>Asset 2</title><g id="Layer_2" data-name="Layer 2"><g id="Layer_1-2" data-name="Layer 1"><path class="cls-1" d="M772,78.17q-25.8-41.67-54.17-59.92T660.06,0Q628.71,0,597,16.86t-62.9,44.84a577.48,577.48,0,0,0-60.71,64.09q-29.57,36.11-56,74.4t-49,75.6q-22.62,37.31-39.88,68.06t-28.18,51.79l-.43.82c-4.38,7.61-9,16-13.77,25.32l-.28.45,0,0c-1.25,2.43-2.52,4.89-3.8,7.44-16.31,32.35-44,80-60.88,80-33.69,0-50.54-33.69-63.18-54.75-17-28.34-33.69-59-45.84-82.29C90,330,67.62,301.35,52.73,286.45c-12.64-12.64-37.91-21.06-50.54,0-5.55,9.25-.53,22.33,15,45.54C35.08,358.7,46,381,51.08,389.7c27,46,64,111.65,75,130,37.91,63.18,84.73,71,110,71s57-24,72-57c9.76-21.47,24.07-47,39.26-75.94l75.42,1.36,140.87-8.73q0,2.38-.59,10.71t-1.19,18.46q-.6,10.12-1,19.64t-.39,14.68a94.81,94.81,0,0,0,3.37,25.6,62.19,62.19,0,0,0,10.52,21.43A48.75,48.75,0,0,0,593.2,575.6c6.32,2.89,14.49,5.41,28.37,5.36,19.51-.08,40.85-.16,57.54-14.68,21-18.31,27.24-53.11,17-61.59-7.91-6.53-27.8.7-29.87,1.47-6.11,2.28-17.19,7.74-25.6,7.74q-7.94,0-10.32-5.56a34.18,34.18,0,0,1-2.38-13.49,84.33,84.33,0,0,1,2.18-18.45q2.18-9.72,4.17-17.26,5.55-19.84,15.87-46.23t22.42-55.16q12.1-28.77,24.6-57.54t22.62-53.37q10.12-24.6,16.67-42.86T743,178.17a31.31,31.31,0,0,0-3.57-13.69,30.13,30.13,0,0,0-8.14-9.52,34.16,34.16,0,0,0-10.91-5.56,41.24,41.24,0,0,0-11.9-1.79A40,40,0,0,0,686.85,154q-10.12,6.35-15.28,21.43Q664,192.06,655.3,211.71t-17.66,39.68q-8.93,20-17.66,39.88t-16.07,36.91q-7.35,17.07-13.29,30.75t-9.52,21.63l-122.62,9.12H385.86q9.52-14.28,22-35.32t27.58-46q15.08-25,32.14-52.38t35.32-53.57q18.25-26.19,37.7-49.8a413.82,413.82,0,0,1,39.09-41.67q19.64-18.05,39.09-28.57t38.09-10.52a59.36,59.36,0,0,1,26.39,6.55q13.29,6.55,25.6,20.83,8.33,10.32,17.66,13.49A51.87,51.87,0,0,0,743,115.87a29,29,0,0,0,11.51-2.38,38.38,38.38,0,0,0,10.12-6.35A32.33,32.33,0,0,0,772,98a21.6,21.6,0,0,0,2.78-10.32Q774.75,83.73,772,78.17Z"/></g></g></svg>